<svg width="1615" height="606" viewBox="0 0 1615 606" fill="none" xmlns="http://www.w3.org/2000/svg">
<rect width="1615" height="606" fill="#B0D5E8"/>
<path d="M679.276 356.213C679.73 358.255 679.616 359.957 678.935 361.319C678.254 362.454 677.233 362.908 675.871 362.681H652.722C651.133 362.681 649.998 361.887 649.317 360.298L630.253 315.019C629.572 313.431 628.437 312.636 626.848 312.636L580.549 313.317C579.868 313.317 579.3 313.09 578.846 312.636C578.392 311.956 578.279 311.161 578.506 310.253L584.974 293.572C586.109 291.075 588.038 289.714 590.762 289.487L616.975 289.146C618.337 289.146 619.359 288.579 620.039 287.444C620.72 286.309 620.834 285.174 620.38 284.04L599.273 230.591C598.819 229.002 597.684 228.208 595.868 228.208C594.28 228.208 593.145 229.002 592.464 230.591L568.974 284.72L557.399 315.36C557.172 315.587 557.058 315.7 557.058 315.7L540.036 359.276C539.355 360.865 538.221 361.66 536.632 361.66L514.503 361.319C512.915 361.092 511.78 360.411 511.099 359.276L580.549 196.206C581.683 193.483 583.726 192.008 586.676 191.781H587.357C603.471 191.781 614.706 199.043 621.061 213.569L679.276 356.213ZM803.496 334.424C805.312 334.424 806.787 335.105 807.922 336.467C809.056 337.602 809.624 338.964 809.624 340.552V355.191C809.624 357.007 809.056 358.482 807.922 359.617C806.787 360.752 805.312 361.319 803.496 361.319H703.067C701.478 361.319 700.003 360.752 698.641 359.617C697.506 358.482 696.939 357.007 696.939 355.191V195.525C696.939 193.937 697.506 192.575 698.641 191.44C700.003 190.078 701.478 189.398 703.067 189.398C709.648 189.398 715.209 191.781 719.748 196.547C724.287 201.086 726.557 206.533 726.557 212.888V328.297C726.557 329.885 727.124 331.361 728.259 332.722C729.394 333.857 730.869 334.424 732.685 334.424H803.496ZM929.014 334.424C934.461 334.424 939 336.354 942.632 340.212C946.49 343.843 948.419 348.382 948.419 353.829V355.532C948.419 357.12 947.852 358.482 946.717 359.617C945.582 360.752 944.22 361.319 942.632 361.319H834.713C833.124 361.319 831.762 360.752 830.627 359.617C829.493 358.482 828.925 357.12 828.925 355.532V195.185C828.925 193.596 829.493 192.235 830.627 191.1C831.762 189.965 833.124 189.398 834.713 189.398H927.312C932.305 189.398 936.504 191.213 939.908 194.845C943.313 198.249 945.015 202.334 945.015 207.1V210.845C945.015 212.434 944.447 213.796 943.313 214.93C942.178 216.065 940.816 216.633 939.227 216.633H864.331C862.742 216.633 861.38 217.314 860.246 218.675C859.111 219.81 858.543 221.512 858.543 223.782V258.166C858.543 259.301 858.884 260.322 859.565 261.23C860.472 261.911 861.494 262.251 862.629 262.251H924.929C925.837 262.251 926.518 262.705 926.972 263.613C927.425 264.294 927.539 264.975 927.312 265.656L918.801 287.103C918.574 288.238 917.893 288.806 916.758 288.806H862.629C861.494 288.806 860.472 289.26 859.565 290.167C858.884 290.848 858.543 291.756 858.543 292.891V329.999C858.543 330.907 859.111 331.928 860.246 333.063C861.38 333.971 862.742 334.424 864.331 334.424H929.014ZM1103.98 355.872C1104.89 357.234 1104.89 358.596 1103.98 359.957C1103.3 361.319 1102.17 362 1100.58 362H1078.45C1077.09 362 1075.95 361.546 1075.04 360.638C1075.04 360.411 1074.93 360.298 1074.7 360.298L1043.04 290.167C1042.82 289.26 1042.25 288.806 1041.34 288.806C1039.52 288.806 1038.28 288.806 1037.6 288.806H1032.49C1031.81 288.806 1031.24 288.465 1030.79 287.784C1030.33 287.103 1030.22 286.423 1030.45 285.742L1038.28 265.996C1039.18 263.727 1040.89 262.478 1043.38 262.251C1050.65 262.024 1056.55 260.436 1061.09 257.485C1065.62 254.535 1067.89 249.088 1067.89 241.144C1067.89 235.016 1065.97 230.137 1062.11 226.505C1058.48 222.647 1054.5 220.151 1050.19 219.016C1045.88 217.881 1041.23 217.314 1036.23 217.314H1003.55C1002.19 217.314 1001.51 217.994 1001.51 219.356V355.872C1001.51 357.688 1000.94 359.163 999.807 360.298C998.672 361.433 997.197 362 995.381 362H975.976C973.253 362 971.777 357.688 971.55 349.063V196.887C971.55 194.618 972.799 193.029 975.295 192.121C977.792 190.986 980.061 190.305 982.104 190.078H982.444H1035.89C1051.33 190.305 1063.92 192.688 1073.68 197.228C1089.57 204.944 1097.63 219.356 1097.85 240.463C1098.08 261.798 1090.02 276.436 1073.68 284.38C1072.32 284.834 1071.98 285.742 1072.66 287.103L1103.98 355.872ZM1283.36 356.213C1283.81 358.255 1283.7 359.957 1283.01 361.319C1282.33 362.454 1281.31 362.908 1279.95 362.681H1256.8C1255.21 362.681 1254.08 361.887 1253.4 360.298L1234.33 315.019C1233.65 313.431 1232.52 312.636 1230.93 312.636L1184.63 313.317C1183.95 313.317 1183.38 313.09 1182.93 312.636C1182.47 311.956 1182.36 311.161 1182.59 310.253L1189.05 293.572C1190.19 291.075 1192.12 289.714 1194.84 289.487L1221.05 289.146C1222.42 289.146 1223.44 288.579 1224.12 287.444C1224.8 286.309 1224.91 285.174 1224.46 284.04L1203.35 230.591C1202.9 229.002 1201.76 228.208 1199.95 228.208C1198.36 228.208 1197.22 229.002 1196.54 230.591L1173.05 284.72L1161.48 315.36C1161.25 315.587 1161.14 315.7 1161.14 315.7L1144.12 359.276C1143.43 360.865 1142.3 361.66 1140.71 361.66L1118.58 361.319C1116.99 361.092 1115.86 360.411 1115.18 359.276L1184.63 196.206C1185.76 193.483 1187.81 192.008 1190.76 191.781H1191.44C1207.55 191.781 1218.79 199.043 1225.14 213.569L1283.36 356.213Z" fill="#005481"/>
<path fill-rule="evenodd" clip-rule="evenodd" d="M440 173L440 200.889C440 213.502 433.724 225.291 423.255 232.34L382.552 259.749L382.552 230.981C382.552 218.165 389.03 206.215 399.774 199.214L440 173ZM429.741 191.923L405.378 207.799C397.538 212.909 392.81 221.629 392.81 230.981L392.81 240.48L417.522 223.84C425.161 218.696 429.741 210.093 429.741 200.889L429.741 191.923Z" fill="#005481"/>
<path fill-rule="evenodd" clip-rule="evenodd" d="M454.362 236.752L454.362 271.668C454.362 284.526 447.842 296.508 437.043 303.499L392.81 332.133L392.81 362L338.453 327.134C327.576 320.158 321 308.132 321 295.217L321 259.348L374.883 292.794C378.654 295.135 381.925 298.078 384.603 301.456L384.603 301.439C384.603 288.381 391.326 276.242 402.398 269.305L454.362 236.752ZM444.103 255.277L407.847 277.99C399.767 283.052 394.862 291.91 394.862 301.439L394.862 318.591L431.465 294.896C439.346 289.795 444.103 281.051 444.103 271.668L444.103 255.277ZM369.469 301.501L331.259 277.783L331.259 295.217C331.259 304.641 336.058 313.417 343.994 318.508L382.552 343.239L382.552 325.011C382.552 315.441 377.604 306.551 369.469 301.501Z" fill="#005481"/>
</svg>
